<?xml version="1.0" encoding="utf-8"?>
<!-- Generator: Adobe Illustrator 24.3.0, SVG Export Plug-In . SVG Version: 6.00 Build 0)  -->
<svg version="1.1" id="Layer_1" xmlns="http://www.w3.org/2000/svg" xmlns:xlink="http://www.w3.org/1999/xlink" x="0px" y="0px"
	 viewBox="0 0 110.3 72.6" style="enable-background:new 0 0 110.3 72.6;" xml:space="preserve">
<style type="text/css">
	.st0{fill:#FFFFFF;}
</style>
<g>
	<g id="layer1">
		<path id="text2159" class="st0" d="M6.8,72.6v-5.9c9.5-5.3,15.7-10.2,18.6-14.6c3-4.4,4.4-9.4,4.4-15.1c0-2.6-0.5-4.6-1.4-5.9
			c-1-1.3-2.2-2-3.4-2c-0.9,0-2.4,0.4-4.5,1.1c-2.1,0.8-4.1,1.1-6.2,1.1c-3.9,0-7.3-1.4-10.1-4.2C1.4,24.3,0,20.9,0,16.9
			c0-4.5,1.8-8.4,5.4-11.8C9,1.7,13.4,0,18.6,0c6.2,0,11.8,2.7,16.8,8c5,5.3,7.5,12.1,7.5,20.3c0,9.8-3.2,18.8-9.5,27
			C27.1,63.4,18.2,69.2,6.8,72.6C6.8,72.6,6.8,72.6,6.8,72.6z M73.8,72.6v-5.9c8.2-4.2,14-8.7,17.6-13.4c3.6-4.7,5.4-9.9,5.4-15.4
			c0-3.3-0.5-5.6-1.4-6.9c-0.9-1.2-2-1.8-3.1-1.8c-1.2,0-2.9,0.4-4.9,1.1c-2.2,0.8-4,1.1-5.6,1.1c-3.8,0-7.2-1.5-10.1-4.4
			c-2.9-2.9-4.3-6.4-4.3-10.4c0-4.5,1.7-8.4,5.2-11.7C76.2,1.6,80.4,0,85.5,0c6.4,0,12.1,2.7,17.2,8.2c5.1,5.5,7.6,12.2,7.6,20.2
			c0,9.4-3.1,18.1-9.4,26.2C94.7,62.7,85.6,68.7,73.8,72.6L73.8,72.6z"/>
	</g>
</g>
</svg>
