<?xml version="1.0" encoding="utf-8"?>
<!-- Generator: Adobe Illustrator 23.0.6, SVG Export Plug-In . SVG Version: 6.00 Build 0)  -->
<svg version="1.1" id="Layer_1" xmlns="http://www.w3.org/2000/svg" xmlns:xlink="http://www.w3.org/1999/xlink" x="0px" y="0px"
	 viewBox="0 0 318.2 284.1" style="enable-background:new 0 0 318.2 284.1;" xml:space="preserve">
<style type="text/css">
	.st0{fill:#FF7F61;}
</style>
<title>Dog House Outline</title>
<title>Layer 1</title>
<path class="st0" d="M159.1,0L0,141.2h46.6v142.9h53.6v-95.8H218v95.8h53.6V141.2h46.6L159.1,0z M163.1,78.7
	c2.1-7.8,8.6-12.9,14.4-11.3c5.9,1.6,8.9,9.2,6.8,17c-2.1,7.8-8.6,12.9-14.5,11.3C164.1,94.2,161,86.6,163.1,78.7z M140.6,67.4
	c5.9-1.6,12.4,3.5,14.5,11.3c2.1,7.8-1,15.5-6.8,17c-5.9,1.6-12.4-3.5-14.5-11.3C131.7,76.6,134.7,69,140.6,67.4z M112,106.9
	c-2.1-7.8,1-15.5,6.8-17.1c5.9-1.6,12.4,3.5,14.5,11.4c2.1,7.8-1,15.5-6.8,17C120.6,119.8,114.1,114.7,112,106.9z M192.4,159.9
	c-8.1,6.2-21,0.1-29.7-0.8c-1.2-0.1-2.5-0.2-3.6-0.2c-1.2,0-2.4,0-3.6,0.2c-8.7,0.9-21.6,7-29.7,0.8c-4-3.1-9.3-10.2-6.1-18.1
	c2.6-6.4,12-8.1,16.4-12.5c9.3-9.3,7.1-24.5,23-25.4c16,0.9,13.7,16.1,23,25.4c4.4,4.4,13.8,6.1,16.4,12.5
	C201.8,149.7,196.4,156.8,192.4,159.9z M206.2,106.9c-2.1,7.8-8.6,12.9-14.5,11.4c-5.9-1.6-8.9-9.2-6.8-17.1
	c2.1-7.8,8.6-12.9,14.4-11.3C205.2,91.4,208.3,99.1,206.2,106.9z"/>
</svg>
